<?xml version="1.0" encoding="UTF-8"?> <svg xmlns="http://www.w3.org/2000/svg" width="72" height="72" viewBox="0 0 72 72" fill="none"> <g clip-path="url(#clip0_7_2)"> <path fill-rule="evenodd" clip-rule="evenodd" d="M36.6001 0.000330005C17.0794 0.000330005 1.2001 15.8796 1.2001 35.4003C1.2001 41.5756 2.81528 47.643 5.87557 52.9803L0.0612907 70.4211C-0.077895 70.8387 0.024074 71.2994 0.325523 71.621C0.554771 71.867 0.87372 72.0002 1.20011 72.0002C1.30208 72.0002 1.40442 71.9868 1.50491 71.9604L20.5464 66.9507C25.4916 69.4706 31.0313 70.8 36.6 70.8C56.1207 70.8 72 54.9207 72 35.4C72 15.8793 56.1207 0 36.6 0L36.6001 0.000330005ZM58.6894 51.473L56.5799 53.5835C53.9155 56.249 50.9435 57.5999 47.7477 57.5999H47.7466C43.4384 57.5999 38.7934 55.1399 33.9433 50.2884L21.712 38.0571C17.8851 34.2317 15.5345 30.5152 14.7243 27.0101C13.7403 22.7537 14.9822 18.8549 18.4169 15.4219L20.5264 13.3111C21.8836 11.9538 24.0794 11.6203 25.7798 12.5202C28.9745 14.2109 32.2842 19.7503 32.6511 20.3754C33.3135 21.5359 33.5164 22.7357 33.2309 23.7655C33.0125 24.5515 32.5205 25.192 31.804 25.6267C30.8356 26.4376 29.698 27.448 29.4989 27.7063C28.2796 29.505 28.4188 30.8861 29.9897 32.4581L39.5438 42.0131C41.1277 43.5982 42.4839 43.7277 44.3112 42.4906C44.5528 42.3023 45.5632 41.1657 46.3741 40.1962C46.9803 39.1943 47.9725 38.6458 49.1798 38.6458C49.9707 38.6458 50.8118 38.8858 51.6123 39.3418C52.2505 39.7173 57.791 43.028 59.4805 46.2212C60.4046 47.9674 60.0875 50.0768 58.6897 51.4739L58.6894 51.473Z" fill="#8A7664"></path> </g> <defs> <clipPath id="clip0_7_2"> <rect width="72" height="72" fill="white"></rect> </clipPath> </defs> </svg> 