<?xml version="1.0" encoding="UTF-8"?> <svg xmlns="http://www.w3.org/2000/svg" width="80" height="70" viewBox="0 0 80 70" fill="none"> <g clip-path="url(#clip0_7_4)"> <path fill-rule="evenodd" clip-rule="evenodd" d="M67.5616 65.4101L67.5644 65.4029L67.6342 65.2282L79.6753 4.52089V4.3237C79.6753 2.81114 79.1164 1.49067 77.9001 0.698616C76.8357 0.00533563 75.6122 -0.0440124 74.7541 0.0211156C73.8463 0.0899779 72.9906 0.31652 72.3984 0.505078C72.0936 0.602088 71.8386 0.695524 71.6559 0.766233C71.5644 0.801729 71.4901 0.831843 71.4363 0.854249L71.3833 0.876573L4.24834 27.2126L4.22987 27.2191C4.19361 27.2323 4.14567 27.2504 4.08773 27.2729C3.97229 27.3178 3.81513 27.3821 3.6305 27.466C3.268 27.6302 2.76714 27.8836 2.2592 28.2313C1.39652 28.8224 -0.24622 30.2209 0.0311558 32.4381C0.260911 34.2747 1.52697 35.4412 2.3805 36.0451C2.83801 36.3691 3.27575 36.6024 3.59629 36.755C3.75867 36.8325 3.89664 36.8915 3.99939 36.9333C4.05091 36.9541 4.09395 36.971 4.12728 36.9839L4.16996 36.9995L4.19722 37.01L15.9429 40.9642C15.9033 41.701 15.9764 42.4523 16.1718 43.1939L22.0554 65.5125C22.7529 68.1586 25.147 70.002 27.8837 70C30.3367 69.9984 32.5123 68.5143 33.4366 66.3003L42.6222 56.4785L58.3983 68.5734L58.6227 68.6713C60.0558 69.2969 61.3953 69.4949 62.6195 69.3278C63.8422 69.1608 64.8135 68.648 65.5435 68.0642C66.2618 67.4896 66.7537 66.8412 67.0632 66.3529C67.2206 66.1048 67.3379 65.8867 67.419 65.7225C67.46 65.6402 67.4921 65.5707 67.5162 65.5161L67.5467 65.4463L67.5575 65.4206L67.5616 65.4101ZM21.9956 41.6585C21.8619 41.1513 22.0718 40.6157 22.5146 40.3346L62.3545 15.0345C62.3545 15.0345 64.6978 13.6119 64.6139 15.0345C64.6139 15.0345 65.0323 15.2857 63.7763 16.4571C62.5854 17.5697 35.3818 43.8339 32.629 46.4917C32.4701 46.645 32.3753 46.8209 32.3193 47.0345L27.8791 63.9771L21.9956 41.6585Z" fill="#8A7664"></path> </g> <defs> <clipPath id="clip0_7_4"> <rect width="80" height="70" fill="white"></rect> </clipPath> </defs> </svg> 