<?xml version="1.0" encoding="UTF-8"?> <svg xmlns="http://www.w3.org/2000/svg" width="46" height="68" viewBox="0 0 46 68" fill="none"> <path d="M22.666 0C10.2256 0 0 9.70113 0 23.5382C0 28.4766 1.16307 31.9117 3.32377 35.7156L21.1412 67.1006C21.3431 67.4657 21.6693 67.7459 22.0605 67.891C22.4516 68.0361 22.882 68.0361 23.2732 67.891C23.6643 67.7459 23.9906 67.4657 24.1925 67.1006L42.0099 35.7156C44.1706 31.911 45.3337 28.4758 45.3337 23.5382C45.3337 9.70067 35.1072 0 22.6676 0H22.666ZM22.666 12.2052C28.444 12.2052 33.1279 16.889 33.1279 22.667C33.1279 28.4445 28.444 33.1288 22.666 33.1288C16.8881 33.1288 12.2042 28.4449 12.2042 22.667C12.2042 16.889 16.8881 12.2052 22.666 12.2052Z" fill="#8A7664"></path> </svg> 