<?xml version="1.0" encoding="UTF-8"?> <svg xmlns="http://www.w3.org/2000/svg" width="32" height="37" viewBox="0 0 32 37" fill="none"> <path d="M31.7494 11.5348L30.513 4.61134C30.4636 4.36416 30.2658 4.21564 30.0183 4.21564H26.0128V3.22666C26.0128 3.0784 25.9139 2.92988 25.8149 2.83096L22.1059 0.111194C21.908 -0.0370646 21.7102 -0.0370646 21.5123 0.111194L17.7539 2.88056C17.6056 2.97949 17.556 3.12775 17.556 3.27627V4.26524H14.0449H13.9955V3.27627C13.9955 3.12801 13.8966 2.97949 13.7977 2.88056L10.0393 0.111194C9.84141 -0.0370646 9.64356 -0.0370646 9.44571 0.111194L5.6873 2.88056C5.58863 2.93015 5.53904 3.07841 5.53904 3.27627V4.26524H1.73109C1.48391 4.26524 1.28606 4.4135 1.23647 4.66094L0 11.5844V11.6833V36.41C0 36.7068 0.197847 36.9046 0.494625 36.9046H31.2548C31.5516 36.9046 31.7494 36.7068 31.7494 36.41V11.6833V11.5348ZM22.304 1.4958L25.0734 3.52336V7.77636H22.304V1.4958ZM18.5456 3.52336L21.315 1.4958V7.77642H18.5456V3.52336ZM10.2872 1.4958L13.0566 3.52336V7.77636H10.2872V1.4958ZM6.52854 3.52336L9.29791 1.4958V7.77642H6.52854V3.52336ZM2.12725 5.20481H5.53956V8.22141C5.53956 8.51818 5.73741 8.71603 6.03418 8.71603H13.5014C13.7982 8.71603 13.996 8.51818 13.996 8.22141V5.15527H14.0454H17.5566V8.17187C17.5566 8.46865 17.7544 8.66649 18.0512 8.66649H25.5184C25.8152 8.66649 26.013 8.46865 26.013 8.17187V5.15527H29.5736L30.6121 11.1391H1.08876L2.12725 5.20481ZM18.9418 26.2224H18.8924H12.8094V24.4917H18.9415L18.9418 26.2224ZM12.8094 27.1618H18.8922H18.9415V35.8652L12.8094 35.8654V27.1618ZM19.9305 35.8658V23.9972C19.9305 23.7004 19.7326 23.5026 19.4358 23.5026H12.3148C12.018 23.5026 11.8202 23.7004 11.8202 23.9972V35.8658H1.03912V12.1776H30.7601V35.8658H19.9305Z" fill="#8A7664"></path> <path d="M27.5953 23.5022H22.9466C22.6498 23.5022 22.4519 23.7 22.4519 23.9968V32.354C22.4519 32.6508 22.6498 32.8486 22.9466 32.8486H27.5953C27.892 32.8486 28.0899 32.6508 28.0899 32.354L28.0896 23.9968C28.0896 23.7 27.8424 23.5022 27.5953 23.5022ZM27.1006 24.4912V26.222H23.5401H23.4412V24.4912H27.1006ZM23.4412 31.8596V27.1615H23.5401H27.1006V31.8596H23.4412Z" fill="#8A7664"></path> <path d="M9.001 23.5022H4.35229C4.05552 23.5022 3.85767 23.7 3.85767 23.9968V32.354C3.85767 32.6508 4.05552 32.8486 4.35229 32.8486H9.001C9.29778 32.8486 9.49563 32.6508 9.49563 32.354L9.49537 23.9968C9.49537 23.7 9.24819 23.5022 9.001 23.5022ZM8.50637 24.4912V26.222H4.94585H4.84692V24.4912H8.50637ZM4.8469 31.8596V27.1615H4.94583H8.50636V31.8596H4.8469Z" fill="#8A7664"></path> <path d="M27.5953 14.7988H22.9466C22.6498 14.7988 22.4519 14.9967 22.4519 15.2935L22.4522 19.398C22.4522 19.6947 22.65 19.8926 22.9468 19.8926H27.5955C27.8923 19.8926 28.0901 19.6947 28.0901 19.398V15.2935C28.0896 14.9964 27.8424 14.7988 27.5953 14.7988ZM27.1006 18.9033H23.4412V15.7879H27.1006V18.9033Z" fill="#8A7664"></path> <path d="M18.1499 14.7988H13.5012C13.2044 14.7988 13.0066 14.9967 13.0066 15.2935L13.0068 19.398C13.0068 19.6947 13.2047 19.8926 13.5015 19.8926H18.1502C18.447 19.8926 18.6448 19.6947 18.6448 19.398V15.2935C18.6446 14.9964 18.4467 14.7988 18.1499 14.7988ZM17.6556 18.9033H13.9961V15.7879H17.6556V18.9033Z" fill="#8A7664"></path> <path d="M9.001 14.7988H4.35229C4.05552 14.7988 3.85767 14.9967 3.85767 15.2935V19.398C3.85767 19.6948 4.05552 19.8926 4.35229 19.8926L9.001 19.8923C9.29778 19.8923 9.49563 19.6945 9.49563 19.3977V15.2932C9.49537 14.9964 9.24819 14.7988 9.001 14.7988ZM8.50637 18.9033H4.8469V15.7879H8.50637V18.9033Z" fill="#8A7664"></path> </svg> 