<?xml version="1.0" encoding="UTF-8"?> <svg xmlns="http://www.w3.org/2000/svg" width="967" height="107" viewBox="0 0 967 107" fill="none"> <path d="M26.3549 0.609027C11.5549 3.10903 2.45486 12.209 1.25486 25.409C0.0548573 39.109 4.35486 44.509 24.6549 54.609C32.7549 58.709 40.6549 63.109 42.2549 64.409C48.3549 69.609 49.8549 79.909 45.5549 88.309C42.6549 94.109 40.7549 95.809 34.4549 98.609C24.5549 103.009 12.1549 99.109 5.95486 89.709C4.25486 87.109 2.55486 85.009 2.15486 85.009C0.954857 85.009 -0.745143 97.509 0.354857 98.409C9.55486 105.709 30.0549 107.009 41.7549 101.109C52.6549 95.609 58.0549 86.809 58.7549 74.009C59.5549 59.109 55.9549 54.809 34.7549 45.509C16.0549 37.209 12.5549 33.709 12.5549 23.509C12.5549 16.409 14.6549 12.509 20.5549 8.60903C24.6549 5.90903 26.2549 5.50903 31.6549 5.50903C35.2549 5.50903 39.2549 6.10903 40.8549 6.90903C44.2549 8.70903 49.9549 15.009 49.9549 17.009C49.9549 17.809 50.2549 18.509 50.7549 18.509C51.3549 18.509 52.1549 15.909 54.1549 7.50903C54.6549 5.20903 44.5549 0.709027 37.4549 0.209027C34.1549 -0.0909728 29.1549 0.109027 26.3549 0.609027Z" fill="#8A7664"></path> <path d="M341.055 0.509021C319.055 3.50902 305.055 12.609 297.255 29.209C293.055 37.909 291.755 48.109 293.055 62.009C294.955 83.109 310.855 100.709 331.355 104.409C344.655 106.809 368.355 105.309 381.255 101.209L387.955 99.109V78.309V57.509H382.455H376.955V75.709C376.955 85.809 376.555 94.509 376.155 95.109C375.755 95.809 372.355 97.309 368.455 98.509C348.955 104.509 325.355 97.909 316.055 83.809C303.655 65.209 304.555 35.309 317.955 18.709C326.755 7.80902 340.955 2.90902 357.455 5.30902C365.655 6.40902 375.555 10.909 380.655 15.809C382.455 17.509 384.055 18.709 384.255 18.409C384.755 17.709 386.955 9.90902 386.955 8.60902C386.955 5.90902 369.055 1.00902 355.455 0.209021C351.055 -0.0909791 344.555 0.109021 341.055 0.509021Z" fill="#8A7664"></path> <path d="M794.455 0.609024C769.255 4.40902 754.755 16.209 748.355 38.009C746.255 45.509 746.755 63.709 749.355 71.009C754.855 86.409 760.955 94.009 772.555 99.809C781.155 104.109 787.655 105.509 798.855 105.509C809.755 105.509 817.855 104.109 825.155 100.809C830.155 98.609 830.955 97.809 831.555 94.809C831.955 92.909 831.955 91.209 831.655 90.909C831.355 90.609 829.355 91.509 827.155 93.009C805.455 107.409 777.955 101.309 766.555 79.609C752.855 53.509 761.955 18.609 785.255 7.90902C790.855 5.30902 792.555 5.00902 801.955 5.00902C811.955 5.00902 812.755 5.20902 818.455 8.30902C821.755 10.109 825.955 12.909 827.755 14.609C829.855 16.609 831.055 17.209 831.355 16.309C833.955 7.10902 833.955 7.00902 832.355 5.80902C830.155 4.20902 814.555 0.709024 806.955 0.109024C803.355 -0.090976 797.755 0.109024 794.455 0.609024Z" fill="#8A7664"></path> <path d="M905.455 0.109027C891.255 2.00903 879.455 7.00903 871.255 14.809C860.955 24.509 855.955 37.209 855.955 53.309C855.955 64.609 857.355 71.209 861.255 79.309C868.355 93.609 882.755 103.209 900.555 105.509C934.955 109.909 962.355 90.709 966.155 59.809C967.555 48.109 966.155 36.409 962.255 28.509C954.655 12.909 936.055 1.70903 914.955 0.209027C911.355 0.00902732 907.155 -0.0909727 905.455 0.109027ZM930.055 8.20903C936.955 11.609 943.155 17.009 948.055 24.109C951.955 29.809 953.955 39.209 953.955 52.009C953.955 69.709 949.055 81.709 937.555 92.309C929.655 99.509 922.955 101.909 910.955 102.009C902.155 102.009 900.855 101.709 894.155 98.609C876.955 90.509 869.155 75.109 870.255 51.009C871.155 30.809 877.255 18.509 890.655 9.90903C897.555 5.40903 901.555 4.50903 913.555 4.90903C922.455 5.10903 924.355 5.50903 930.055 8.20903Z" fill="#8A7664"></path> <path d="M89.9548 53.209V104.009H93.4548H96.9548V63.709C96.9548 24.609 97.0548 23.509 98.8548 23.509C99.9548 23.509 101.455 24.309 102.155 25.309C103.655 27.409 115.555 40.809 124.455 50.509C127.855 54.109 132.555 59.309 134.955 62.109C137.455 64.809 145.755 74.109 153.455 82.609C161.155 91.109 168.655 99.609 170.055 101.409C171.855 103.709 173.255 104.609 174.355 104.209C175.755 103.609 175.955 98.509 175.955 53.009V2.50903H172.455H168.955V40.409C168.955 62.509 168.555 78.609 168.055 79.009C167.555 79.309 165.155 77.409 162.755 74.809C155.355 66.909 143.755 54.309 138.855 49.009C95.1548 1.90903 95.8548 2.50903 92.8548 2.50903H89.9548V53.209Z" fill="#8A7664"></path> <path d="M212.955 53.009V103.509H239.355H265.655V99.509C265.655 96.309 265.355 95.509 264.055 95.909C263.155 96.109 254.155 96.509 243.955 96.709L225.455 97.009V75.009V53.009H243.755H261.955V50.009V47.009H244.255H226.455V27.509V8.00902L242.455 8.30902C251.255 8.40902 259.955 8.80902 261.755 9.10902C264.855 9.60902 264.955 9.50902 264.955 6.00902V2.50902H238.955H212.955V53.009Z" fill="#8A7664"></path> <path d="M422.955 53.209V104.009H428.955H434.955V53.209V2.50902H428.955H422.955V53.209Z" fill="#8A7664"></path> <path d="M471.955 52.909V103.509H477.955H483.955V78.509V53.509H487.455C490.155 53.509 491.655 54.309 493.955 56.809C496.855 59.909 518.855 88.809 525.955 98.709L529.255 103.509H537.155C541.455 103.509 544.955 103.209 544.955 102.909C544.955 102.509 543.255 100.209 541.255 97.709C529.855 83.909 505.955 53.909 505.955 53.409C505.955 53.009 509.355 51.509 513.555 50.109C526.255 45.509 532.655 39.609 535.055 30.109C537.655 19.709 533.455 10.409 524.255 5.80903C518.455 3.00903 518.355 3.00903 495.255 2.70903L471.955 2.30903V52.909ZM512.455 9.30903C514.655 10.409 517.855 12.709 519.455 14.509C522.355 17.509 522.455 18.009 522.455 26.509C522.455 34.809 522.255 35.509 519.355 39.209C517.655 41.309 513.955 44.309 511.155 45.809C506.655 48.309 504.455 48.709 494.955 49.209L483.955 49.809V28.009V6.20903L496.255 6.70903C505.955 7.10903 509.255 7.60903 512.455 9.30903Z" fill="#8A7664"></path> <path d="M572.155 53.109L572.455 103.709L578.755 103.909L584.955 104.009V53.209V2.50902H578.455H571.955L572.155 53.109Z" fill="#8A7664"></path> <path d="M671.955 53.009V103.509H697.455H722.955V99.709V96.009L704.255 96.809C693.855 97.209 684.855 97.309 684.255 97.009C683.255 96.709 682.955 91.209 682.955 74.509V52.409L701.455 52.709L719.955 53.009V50.009V47.009H702.255H684.455V27.509V8.00902L700.455 8.30902C709.255 8.40902 717.955 8.80902 719.755 9.10902C722.855 9.60902 722.955 9.50902 722.955 6.00902V2.50902H697.455H671.955V53.009Z" fill="#8A7664"></path> </svg> 