<?xml version="1.0" encoding="UTF-8"?> <svg xmlns="http://www.w3.org/2000/svg" width="41" height="41" viewBox="0 0 41 41" fill="none"> <g clip-path="url(#clip0_8_35)"> <path d="M9.70649 21.8253C9.51894 21.6735 9.25032 21.6735 9.06277 21.8253L2.44413 27.1649C2.22374 27.3427 2.1893 27.665 2.36732 27.8854C2.54559 28.1053 2.86745 28.1403 3.08785 27.9623L3.71461 27.4566V35.14C3.71461 35.423 3.94428 35.6526 4.2272 35.6526H14.5432C14.8262 35.6526 15.0558 35.423 15.0558 35.14L15.0556 27.4572L15.6823 27.9629C15.7772 28.0392 15.8908 28.0766 16.0037 28.0766C16.1533 28.0766 16.3014 28.0114 16.4029 27.8859C16.5806 27.6655 16.5459 27.3425 16.326 27.1653L9.70649 21.8253ZM14.0305 34.6281H4.73915V26.6307L9.38477 22.8828L14.0304 26.6307L14.0305 34.6281Z" fill="#8A7664"></path> <path d="M16.3179 13.6518C17.1031 14.5589 18.1948 15.1054 19.3913 15.1914C19.5015 15.1991 19.6106 15.2031 19.7203 15.2031C20.7984 15.2031 21.8297 14.8198 22.6539 14.1069L26.3935 10.8685C27.3006 10.0833 27.8471 8.99163 27.9331 7.7951C28.0192 6.59856 27.6343 5.44007 26.8486 4.53304C26.0635 3.62601 24.9718 3.07949 23.7752 2.99343C22.5805 2.90946 21.4202 3.29224 20.5132 4.07794L16.7735 7.31639C15.8665 8.10155 15.32 9.19324 15.2339 10.3898C15.1473 11.5871 15.5322 12.7453 16.3179 13.6518ZM16.2554 10.4637C16.3216 9.54026 16.7439 8.69759 17.4437 8.092L21.1834 4.85355C21.8189 4.30308 22.6146 4.00742 23.447 4.00742C23.531 4.00742 23.6155 4.0106 23.7008 4.01669C24.6242 4.08292 25.4669 4.50517 26.0725 5.20502C26.6788 5.90514 26.976 6.79895 26.9093 7.72239C26.8431 8.64583 26.4208 9.4885 25.721 10.0941L21.9813 13.3325C21.2812 13.9389 20.3895 14.2372 19.4639 14.1694C18.5405 14.1032 17.6978 13.6809 17.0922 12.9811C16.4864 12.2809 16.1892 11.3871 16.2554 10.4637Z" fill="#8A7664"></path> <path d="M0.512627 40.9956H18.2578C18.5408 40.9956 18.7704 40.7659 18.7704 40.483L18.7702 19.3361C18.7702 18.9425 18.7344 18.5504 18.682 18.1621C20.5034 18.3067 22.379 17.7531 23.8664 16.4652L24.5398 15.8818L36.3403 29.5093C36.7763 30.0126 37.3925 30.2709 38.0116 30.2709C38.5242 30.2709 39.0391 30.0942 39.4559 29.7329C39.9022 29.3469 40.1714 28.81 40.2132 28.2216C40.2559 27.6333 40.0662 27.0635 39.6797 26.6176L39.3594 26.2476L40.8225 24.9802C41.0363 24.7953 41.0598 24.4714 40.8741 24.2571L39.3475 22.4936C39.1626 22.2798 38.8391 22.2562 38.6243 22.4419L37.1612 23.7093L36.3734 22.8001L37.837 21.5328C37.9395 21.4441 38.0031 21.318 38.0129 21.1823C38.0227 21.0464 37.978 20.9127 37.889 20.8099L36.3618 19.0453C36.1763 18.8316 35.8529 18.8074 35.6386 18.9937L34.1755 20.261L27.8785 12.9898L28.5519 12.4065C31.4977 9.85525 31.819 5.38358 29.268 2.43768C26.7167 -0.507532 22.245 -0.829925 19.2991 1.72162L17.9958 2.85014C16.7314 2.5047 11.6553 1.43924 8.58033 5.53969C7.28309 7.26925 6.99223 9.12251 7.14163 10.7763C3.08648 11.517 0 15.0696 0 19.336V40.4828C0 40.7657 0.22967 40.9954 0.512588 40.9954L0.512627 40.9956ZM19.9702 2.49614C22.4886 0.315476 26.3117 0.589655 28.4932 3.1086C30.6739 5.6276 30.3997 9.45068 27.8808 11.6316L26.8198 12.55C26.606 12.7349 26.5824 13.0589 26.7681 13.2732L33.7355 21.3195C33.9204 21.5333 34.2438 21.5574 34.4586 21.3712L35.9217 20.1038L36.7776 21.0924L35.314 22.3598C35.2115 22.4485 35.1479 22.5746 35.1381 22.7102C35.1283 22.8461 35.1731 22.9799 35.2621 23.0827L36.7207 24.7672C36.9061 24.981 37.2295 25.0046 37.4438 24.8189L38.9069 23.5516L39.7628 24.5402L38.2997 25.8075C38.086 25.9924 38.0624 26.3164 38.2481 26.5307L38.904 27.288C39.1111 27.527 39.2126 27.8324 39.1901 28.1474C39.1676 28.4626 39.0235 28.7506 38.7842 28.9577C38.2918 29.385 37.5419 29.3312 37.1146 28.8377L24.9783 14.823C24.8896 14.7205 24.763 14.6569 24.6279 14.6471C24.6157 14.6466 24.6032 14.6461 24.591 14.6461C24.4681 14.6461 24.3492 14.69 24.2554 14.7711L23.1944 15.6901C20.676 17.8707 16.8524 17.596 14.6714 15.0776C12.4908 12.5586 12.7649 8.73552 15.2839 6.55458L19.9702 2.49614ZM9.39982 6.15498C11.7413 3.03229 15.3697 3.32552 17.0487 3.67043L14.6129 5.77983C13.1861 7.01535 12.3257 8.73325 12.1903 10.6161C12.1837 10.7094 12.1872 10.801 12.1837 10.894C11.4923 10.7208 10.781 10.6281 10.061 10.6281H8.70819C8.52276 10.6281 8.34077 10.6445 8.15772 10.6556C8.0372 9.21901 8.29494 7.6278 9.39983 6.15492L9.39982 6.15498ZM1.02463 19.3362C1.02463 15.585 3.7285 12.4577 7.2888 11.7891C7.44006 12.548 7.66708 13.2434 7.90735 13.837C7.23185 14.3043 6.78656 15.0797 6.78656 15.9586C6.78656 17.3838 7.9519 18.5435 9.3845 18.5435C10.8168 18.5435 11.9824 17.3838 11.9824 15.9586C11.9824 14.5335 10.8171 13.3737 9.3845 13.3737C9.19906 13.3737 9.01867 13.3946 8.84383 13.4317C8.63667 12.9183 8.44091 12.3213 8.30634 11.6727C8.44012 11.6656 8.5723 11.6523 8.7082 11.6523H10.061C10.797 11.6523 11.5231 11.7575 12.2221 11.9623C12.3856 13.354 12.9585 14.6656 13.8963 15.7485C14.9075 16.916 16.2219 17.6643 17.6222 17.9917C17.7001 18.4336 17.7446 18.8839 17.7446 19.3361V39.9703H1.02471L1.02463 19.3362ZM8.9658 15.8795C9.06567 16.0209 9.22408 16.0967 9.38514 16.0967C9.48713 16.0967 9.58965 16.0665 9.67918 16.0035C9.91071 15.8411 9.9666 15.5216 9.80422 15.2896C9.79548 15.2769 9.57216 14.9518 9.29163 14.4077C9.32289 14.4056 9.35309 14.3984 9.38488 14.3984C10.2519 14.3984 10.9576 15.0986 10.9576 15.9584C10.9576 16.8183 10.2519 17.5185 9.38488 17.5185C8.51786 17.5185 7.81217 16.8183 7.81217 15.9584C7.81217 15.4957 8.02012 15.0838 8.3441 14.7977C8.67974 15.4634 8.95497 15.8647 8.96584 15.8795H8.9658Z" fill="#8A7664"></path> </g> <defs> <clipPath id="clip0_8_35"> <rect width="41" height="41" fill="white"></rect> </clipPath> </defs> </svg> 