<?xml version="1.0" encoding="UTF-8"?> <svg xmlns="http://www.w3.org/2000/svg" width="50" height="58" viewBox="0 0 50 58" fill="none"> <g clip-path="url(#clip0_8_24)"> <path d="M14.9115 41.9138H34.9645C35.363 41.9138 35.6853 41.5916 35.6853 41.193V25.2463L37.3332 26.6682C37.4696 26.7855 37.6372 26.8433 37.8037 26.8433C38.0056 26.8433 38.2072 26.7591 38.3495 26.5933C38.6095 26.2919 38.5756 25.8367 38.2746 25.5771L25.4091 14.4778C25.1391 14.2442 24.7375 14.2442 24.467 14.4778L11.6006 25.5771C11.2993 25.8364 11.2654 26.292 11.5258 26.5933C11.785 26.8954 12.2391 26.9278 12.5419 26.6682L14.1907 25.2456V41.1922C14.1914 41.5912 14.5136 41.9134 14.9119 41.9134L14.9115 41.9138ZM24.938 15.975L34.2441 24.0034V40.4727H15.633V24.0025L24.938 15.975Z" fill="#8A7664"></path> <path d="M22.4431 53.8333C22.4677 53.8355 22.4923 53.837 22.5173 53.837C22.8827 53.837 23.1952 53.5603 23.2336 53.19C23.2738 52.7936 22.9855 52.4405 22.5891 52.3995C10.5324 51.1695 1.43948 41.0494 1.43948 28.8581C1.43948 16.7022 10.7512 6.46205 22.7322 5.31006L20.2013 7.85168C19.9201 8.1333 19.9216 8.58963 20.2043 8.87092C20.344 9.01061 20.5288 9.08065 20.7124 9.08065C20.8976 9.08065 21.0827 9.00913 21.2235 8.86794L25.0257 5.04816C25.3055 4.76692 25.3055 4.31246 25.0257 4.03121L21.2235 0.212197C20.9423 -0.0690481 20.4863 -0.0716611 20.204 0.209962C19.9224 0.491207 19.9209 0.947169 20.2018 1.22949L22.8157 3.85418C9.99598 4.97212 1.07851e-08 15.8871 1.07851e-08 28.8584C-0.000372478 41.7906 9.6479 52.5285 22.4437 53.8331L22.4431 53.8333Z" fill="#8A7664"></path> <path d="M27.5564 3.8248C27.1686 3.79164 26.8069 4.07289 26.766 4.46924C26.7257 4.86559 27.0141 5.21874 27.4104 5.25972C39.4672 6.48971 48.5601 16.6099 48.5601 28.8011C48.5601 40.9571 39.2483 51.1972 27.2683 52.3491L29.7992 49.8075C30.0804 49.5259 30.0789 49.0696 29.7962 48.7883C29.5149 48.507 29.0582 48.5093 28.7769 48.7913L24.9747 52.611C24.695 52.8923 24.695 53.3468 24.9747 53.628L28.7769 57.447C28.9178 57.5852 29.1029 57.6567 29.2873 57.6567C29.4709 57.6567 29.6557 57.5867 29.7961 57.447C30.0777 57.1658 30.0792 56.7098 29.7984 56.4275L27.1852 53.8042C40.0049 52.6863 49.9999 41.7713 49.9999 28.8C50.0007 15.8668 40.352 5.12986 27.5562 3.82529L27.5564 3.8248Z" fill="#8A7664"></path> </g> <defs> <clipPath id="clip0_8_24"> <rect width="50" height="58" fill="white"></rect> </clipPath> </defs> </svg> 