<?xml version="1.0" encoding="UTF-8"?> <svg xmlns="http://www.w3.org/2000/svg" width="21" height="18" viewBox="0 0 21 18" fill="none"> <g clip-path="url(#clip0_7_8)"> <path d="M14.1479 3.91565L10.5352 11.3739L6.96935 3.91565L4.00931 12.9123H3.49658V13.9145H6.50322V12.9589H6.03699L7.50543 8.92677L10.1623 13.9144H10.8849L13.542 8.8802L15.0335 12.9124H14.4975V13.9146H17.5741V12.9124H17.0379L14.1479 3.91565Z" fill="#8A7664"></path> <path d="M10.4652 0C7.64504 0 4.98812 1.1187 3.00689 3.12328C1.04909 5.12758 -0.0230031 7.76146 0.000374415 10.535C0.000374415 12.9589 0.862722 15.3363 2.4243 17.2241C2.51754 17.3406 2.63404 17.3872 2.77391 17.3872H5.85043C8.20447 17.3872 11.2344 17.4105 13.7516 17.4105C15.8027 17.4105 17.5275 17.4105 18.2963 17.3872C18.4362 17.3872 18.5527 17.3174 18.646 17.2008C20.1843 15.2896 21 12.9589 21 10.5116C21 4.7317 16.2687 0.000376478 10.465 0.000376478L10.4652 0ZM18.0401 16.4546C16.0356 16.5013 9.67288 16.4779 5.82699 16.4546H2.9836C1.65515 14.7766 0.909292 12.6788 0.909292 10.5347C0.909292 7.99428 1.88813 5.59365 3.68283 3.77587C5.50076 1.95782 7.90158 0.932357 10.4651 0.932357C15.7559 0.932357 20.0678 5.24425 20.0678 10.535C20.0678 12.7026 19.3685 14.7538 18.0401 16.455V16.4546Z" fill="#8A7664"></path> </g> <defs> <clipPath id="clip0_7_8"> <rect width="21" height="18" fill="white"></rect> </clipPath> </defs> </svg> 